<svg width="512" height="512" viewBox="0 0 512 512" fill="none" xmlns="http://www.w3.org/2000/svg">
<g clip-path="url(#clip0_2183_2)">
<path d="M170.698 448H72.7572C67.9432 447.988 64.0432 444.089 64.0322 439.275V72.725C64.0442 67.911 67.9432 64.011 72.7572 64H170.698C188.371 64 202.698 49.673 202.698 32C202.698 14.327 188.371 0 170.698 0H72.7572C32.6112 0.047 0.0792266 32.58 0.0322266 72.725V439.274C0.0792266 479.42 32.6112 511.953 72.7572 512H170.698C188.371 512 202.698 497.673 202.698 480C202.698 462.327 188.371 448 170.698 448Z" fill="white"/>
<path d="M483.914 188.117L401.098 105.365C388.597 92.8701 368.334 92.8751 355.839 105.376C343.344 117.877 343.349 138.14 355.85 150.635L428.639 223.403L138.698 224C121.025 224 106.698 238.327 106.698 256C106.698 273.673 121.025 288 138.698 288L429.813 287.467L355.85 361.43C343.808 374.366 344.533 394.614 357.468 406.656C369.763 418.101 388.814 418.092 401.098 406.635L483.85 323.883C521.341 286.393 521.341 225.609 483.851 188.119L483.85 188.118L483.914 188.117Z" fill="white"/>
</g>
<defs>
<clipPath id="clip0_2183_2">
<rect width="512" height="512" fill="white"/>
</clipPath>
</defs>
</svg>
