<?xml version="1.0" standalone="no"?>
<!DOCTYPE svg PUBLIC "-//W3C//DTD SVG 20010904//EN"
 "http://www.w3.org/TR/2001/REC-SVG-20010904/DTD/svg10.dtd">
<svg version="1.0" xmlns="http://www.w3.org/2000/svg"
 width="512.000000pt" height="512.000000pt" viewBox="0 0 512.000000 512.000000"
 preserveAspectRatio="xMidYMid meet">

<g transform="translate(0.000000,512.000000) scale(0.100000,-0.100000)"
fill="#000000" stroke="none">
<path d="M3693 4656 c-199 -73 -373 -140 -387 -149 -36 -24 -72 -76 -86 -124
-35 -117 52 -250 177 -269 49 -7 78 -1 210 47 51 18 94 31 96 29 2 -3 43 -230
91 -505 48 -275 92 -513 97 -529 16 -50 64 -70 109 -46 43 23 41 40 -56 595
-52 292 -93 534 -91 539 3 8 121 55 139 56 4 0 5 -21 1 -47 -4 -36 31 -252
137 -856 85 -478 139 -812 134 -817 -5 -5 -34 -12 -64 -16 l-55 -6 -27 153
c-29 167 -41 189 -97 189 -34 0 -71 -37 -71 -71 0 -14 11 -89 25 -167 l26
-143 -21 -26 c-25 -32 -25 -62 0 -199 11 -60 18 -120 15 -134 -4 -15 -186
-205 -463 -482 l-457 -458 -403 0 -403 0 -24 -25 c-32 -31 -32 -69 0 -100 l24
-25 681 0 c452 0 680 -3 680 -10 0 -6 -66 -98 -146 -204 -110 -147 -153 -197
-176 -205 -21 -7 -225 -11 -617 -11 l-587 0 -293 90 -294 90 -355 0 c-310 0
-358 2 -389 17 -79 37 -96 135 -34 197 l31 31 606 5 606 5 19 24 c26 32 24 67
-6 96 -23 24 -29 25 -163 25 l-139 0 -21 58 c-53 144 -185 313 -319 408 -179
128 -419 191 -633 165 -284 -35 -531 -194 -679 -439 -65 -109 -58 -137 66
-264 l96 -97 2 -108 c4 -182 55 -303 180 -429 88 -88 176 -141 281 -168 79
-20 232 -21 309 -1 146 37 285 136 367 261 l42 64 56 0 c41 0 130 -23 348 -90
l293 -90 608 0 c656 0 666 1 735 53 18 14 104 120 191 237 145 194 158 215
163 260 6 62 -10 101 -56 141 l-35 31 204 204 c112 112 205 202 206 200 2 -2
10 -39 17 -83 l15 -80 -73 -74 c-79 -81 -134 -177 -161 -284 -19 -75 -19 -212
0 -294 20 -82 82 -202 140 -268 57 -65 173 -144 256 -173 89 -31 268 -39 358
-15 274 71 471 323 471 600 0 229 -138 453 -340 554 -45 23 -88 41 -95 41 -16
0 -15 -7 -110 535 -41 237 -82 445 -90 463 -8 18 -25 37 -38 43 -21 10 -30 54
-165 822 -79 447 -143 821 -142 831 0 11 7 45 16 76 14 51 20 59 55 74 86 38
108 121 64 244 -33 91 -56 127 -95 147 -61 31 -107 20 -487 -119z m439 -75
c10 -30 15 -58 11 -62 -5 -3 -167 -64 -361 -134 -308 -112 -356 -127 -377
-117 -37 17 -53 57 -35 89 13 22 69 46 365 154 193 71 356 127 364 126 8 -1
22 -27 33 -56z m228 -2146 c0 -2 59 -336 131 -742 80 -452 128 -751 125 -772
-15 -94 -137 -129 -204 -58 -32 34 -37 53 -102 427 -33 190 -65 365 -71 390
-13 56 -51 97 -101 111 -69 18 -99 -5 -393 -300 l-270 -271 -95 0 -94 0 416
418 c410 411 417 418 433 476 16 55 16 65 0 168 -10 60 -16 110 -14 112 4 3
201 43 227 45 6 0 12 -1 12 -4z m-3410 -739 c243 -45 441 -189 549 -402 17
-34 31 -64 31 -68 0 -3 -33 -6 -74 -6 l-74 0 -28 48 c-126 216 -398 337 -644
288 -102 -21 -186 -58 -267 -120 -59 -45 -137 -137 -170 -199 l-15 -29 -49 48
c-27 26 -49 52 -49 57 0 21 84 129 148 189 174 163 412 235 642 194z m-39
-286 c81 -16 173 -63 234 -121 30 -29 55 -55 55 -60 0 -4 -102 -9 -227 -11
-213 -3 -231 -4 -269 -25 -206 -110 -201 -400 8 -494 49 -22 69 -24 272 -29
l220 -5 -33 -37 c-142 -161 -415 -197 -601 -78 -66 42 -132 117 -168 190 -171
341 133 741 509 670z m3841 -66 c99 -63 183 -185 207 -302 40 -191 -42 -383
-211 -492 -82 -54 -164 -73 -281 -68 -84 3 -103 8 -168 40 -126 62 -211 161
-251 292 -17 55 -20 86 -16 161 4 81 10 103 41 167 19 40 46 87 60 103 l25 30
6 -25 c3 -14 19 -104 36 -200 22 -127 38 -190 58 -230 62 -124 217 -180 348
-125 87 36 164 147 164 237 0 26 -16 134 -35 239 -19 106 -35 194 -35 196 0 7
13 2 52 -23z"/>
</g>
</svg>
